<svg width="407" height="95" viewBox="0 0 407 95" fill="none" xmlns="http://www.w3.org/2000/svg">
<g filter="url(#filter0_d_294_161)">
<path d="M30.83 66.86C25.842 66.86 21.456 65.9427 17.672 64.108C13.888 62.216 10.7347 59.722 8.212 56.626C5.74667 53.4727 3.88333 49.9753 2.622 46.134C1.36067 42.2353 0.73 38.2507 0.73 34.18C0.73 30.1093 1.36067 26.1247 2.622 22.226C3.88333 18.3273 5.74667 14.83 8.212 11.734C10.7347 8.58066 13.888 6.08666 17.672 4.252C21.456 2.41733 25.842 1.49999 30.83 1.49999C34.958 1.49999 38.484 2.04466 41.408 3.134C44.3893 4.166 46.8547 5.51333 48.804 7.176C50.8107 8.83866 52.416 10.616 53.62 12.508C54.8813 14.4 55.7987 16.1773 56.372 17.84C57.0027 19.5027 57.404 20.8787 57.576 21.968C57.8053 23 57.92 23.516 57.92 23.516H49.492C49.492 23.516 49.3773 23.0573 49.148 22.14C48.9187 21.1653 48.46 19.99 47.772 18.614C47.084 17.1807 46.052 15.7473 44.676 14.314C43.3 12.8807 41.494 11.7053 39.258 10.788C37.022 9.81333 34.2413 9.326 30.916 9.326C27.304 9.326 24.1507 10.0427 21.456 11.476C18.7613 12.852 16.4967 14.744 14.662 17.152C12.8847 19.5027 11.5373 22.1687 10.62 25.15C9.76 28.074 9.33 31.084 9.33 34.18C9.33 37.276 9.76 40.3147 10.62 43.296C11.5373 46.22 12.8847 48.886 14.662 51.294C16.4967 53.6447 18.7613 55.5367 21.456 56.97C24.1507 58.346 27.304 59.034 30.916 59.034C34.2413 59.034 37.022 58.5467 39.258 57.572C41.494 56.5973 43.3 55.422 44.676 54.046C46.052 52.6127 47.084 51.208 47.772 49.832C48.46 48.3987 48.9187 47.1947 49.148 46.22C49.3773 45.2453 49.492 44.758 49.492 44.758H57.92C57.92 44.758 57.8053 45.3027 57.576 46.392C57.404 47.424 57.0027 48.8 56.372 50.52C55.7987 52.1827 54.8813 53.96 53.62 55.852C52.416 57.6867 50.8107 59.464 48.804 61.184C46.8547 62.8467 44.3893 64.2227 41.408 65.312C38.484 66.344 34.958 66.86 30.83 66.86ZM90.2896 66.86C85.4163 66.86 81.3169 65.742 77.9916 63.506C74.6663 61.2127 72.1436 58.26 70.4236 54.648C68.7036 51.036 67.8436 47.2233 67.8436 43.21C67.8436 39.1393 68.7036 35.3267 70.4236 31.772C72.1436 28.16 74.6663 25.236 77.9916 23C81.3169 20.7067 85.4163 19.56 90.2896 19.56C95.1629 19.56 99.2623 20.7067 102.588 23C105.913 25.236 108.436 28.16 110.156 31.772C111.876 35.3267 112.736 39.1393 112.736 43.21C112.736 47.2233 111.876 51.036 110.156 54.648C108.436 58.26 105.913 61.2127 102.588 63.506C99.2623 65.742 95.1629 66.86 90.2896 66.86ZM90.2896 59.722C93.3856 59.722 95.9656 58.948 98.0296 57.4C100.151 55.7947 101.728 53.7307 102.76 51.208C103.849 48.6853 104.394 46.0193 104.394 43.21C104.394 40.3433 103.849 37.6773 102.76 35.212C101.728 32.6893 100.151 30.654 98.0296 29.106C95.9656 27.5007 93.3856 26.698 90.2896 26.698C87.2509 26.698 84.6709 27.5007 82.5496 29.106C80.4283 30.654 78.8229 32.6893 77.7336 35.212C76.7016 37.6773 76.1856 40.3433 76.1856 43.21C76.1856 46.0193 76.7016 48.6853 77.7336 51.208C78.8229 53.7307 80.4283 55.7947 82.5496 57.4C84.6709 58.948 87.2509 59.722 90.2896 59.722ZM143.241 19.56C146.108 19.56 148.516 20.0187 150.465 20.936C152.415 21.8533 153.991 22.9427 155.195 24.204C156.399 25.408 157.317 26.5547 157.947 27.644H158.463V20.42H166.633V66H158.463V58.776H157.947C157.317 59.8653 156.399 61.0407 155.195 62.302C153.991 63.5633 152.415 64.6527 150.465 65.57C148.516 66.43 146.108 66.86 143.241 66.86C139.801 66.86 136.791 66.2007 134.211 64.882C131.631 63.506 129.481 61.7 127.761 59.464C126.041 57.1707 124.751 54.6193 123.891 51.81C123.031 49.0007 122.601 46.134 122.601 43.21C122.601 40.286 123.031 37.4193 123.891 34.61C124.751 31.8007 126.041 29.278 127.761 27.042C129.481 24.7487 131.631 22.9427 134.211 21.624C136.791 20.248 139.801 19.56 143.241 19.56ZM144.617 26.526C141.579 26.526 139.027 27.3573 136.963 29.02C134.899 30.6253 133.351 32.6893 132.319 35.212C131.345 37.7347 130.857 40.4007 130.857 43.21C130.857 45.962 131.345 48.628 132.319 51.208C133.351 53.7307 134.899 55.8233 136.963 57.486C139.027 59.0913 141.579 59.894 144.617 59.894C147.656 59.894 150.179 59.0913 152.185 57.486C154.249 55.8233 155.769 53.7307 156.743 51.208C157.775 48.628 158.291 45.962 158.291 43.21C158.291 40.4007 157.775 37.7347 156.743 35.212C155.769 32.6893 154.249 30.6253 152.185 29.02C150.179 27.3573 147.656 26.526 144.617 26.526ZM200.225 66.86C196.498 66.86 193.23 66.2007 190.421 64.882C187.612 63.506 185.261 61.7 183.369 59.464C181.534 57.1707 180.13 54.6193 179.155 51.81C178.238 49.0007 177.779 46.134 177.779 43.21C177.779 40.286 178.238 37.448 179.155 34.696C180.072 31.8867 181.448 29.3353 183.283 27.042C185.175 24.7487 187.526 22.9427 190.335 21.624C193.144 20.248 196.441 19.56 200.225 19.56C203.894 19.56 206.933 20.1047 209.341 21.194C211.749 22.2833 213.67 23.6593 215.103 25.322C216.594 26.9273 217.683 28.5613 218.371 30.224C219.116 31.8293 219.604 33.1767 219.833 34.266C220.062 35.3553 220.177 35.9 220.177 35.9H212.265C212.265 35.9 212.122 35.4413 211.835 34.524C211.548 33.5493 211.004 32.46 210.201 31.256C209.398 30.052 208.194 28.9913 206.589 28.074C204.984 27.0993 202.862 26.612 200.225 26.612C197.072 26.612 194.406 27.4147 192.227 29.02C190.106 30.568 188.5 32.6033 187.411 35.126C186.379 37.6487 185.863 40.3433 185.863 43.21C185.863 46.0767 186.379 48.7713 187.411 51.294C188.5 53.8167 190.106 55.8807 192.227 57.486C194.406 59.034 197.072 59.808 200.225 59.808C202.862 59.808 204.984 59.3493 206.589 58.432C208.194 57.4573 209.398 56.368 210.201 55.164C211.004 53.96 211.548 52.8993 211.835 51.982C212.122 51.0073 212.265 50.52 212.265 50.52H220.177C220.177 50.52 220.062 51.0647 219.833 52.154C219.604 53.2433 219.116 54.6193 218.371 56.282C217.683 57.8873 216.594 59.5213 215.103 61.184C213.67 62.7893 211.749 64.1367 209.341 65.226C206.933 66.3153 203.894 66.86 200.225 66.86ZM232.241 66V0.639996H240.411V27.042H240.927C241.329 26.354 241.988 25.408 242.905 24.204C243.88 23 245.256 21.9393 247.033 21.022C248.811 20.0473 251.047 19.56 253.741 19.56C257.067 19.56 259.905 20.334 262.255 21.882C264.606 23.3727 266.383 25.408 267.587 27.988C268.849 30.568 269.479 33.4633 269.479 36.674V66H261.309V37.19C261.309 34.1513 260.449 31.6287 258.729 29.622C257.067 27.6153 254.63 26.612 251.419 26.612C248.839 26.612 246.747 27.2713 245.141 28.59C243.536 29.8513 242.332 31.5427 241.529 33.664C240.784 35.728 240.411 37.9353 240.411 40.286V66H232.241ZM286.852 11.734C285.304 11.734 284.014 11.218 282.982 10.186C282.007 9.154 281.52 7.92133 281.52 6.488C281.52 4.99733 282.007 3.736 282.982 2.70399C284.014 1.672 285.304 1.156 286.852 1.156C288.343 1.156 289.604 1.672 290.636 2.70399C291.668 3.736 292.184 4.99733 292.184 6.488C292.184 7.92133 291.668 9.154 290.636 10.186C289.604 11.218 288.343 11.734 286.852 11.734ZM282.81 66V20.42H290.98V66H282.81ZM304.196 66V20.42H312.366V27.042H312.882C313.283 26.354 313.942 25.408 314.86 24.204C315.834 23 317.21 21.9393 318.988 21.022C320.765 20.0473 323.001 19.56 325.696 19.56C329.021 19.56 331.859 20.334 334.21 21.882C336.56 23.3727 338.338 25.408 339.542 27.988C340.803 30.568 341.434 33.4633 341.434 36.674V66H333.264V37.19C333.264 34.1513 332.404 31.6287 330.684 29.622C329.021 27.6153 326.584 26.612 323.374 26.612C320.794 26.612 318.701 27.2713 317.096 28.59C315.49 29.8513 314.286 31.5427 313.484 33.664C312.738 35.728 312.366 37.9353 312.366 40.286V66H304.196ZM375.425 84.06C371.641 84.06 368.487 83.544 365.965 82.512C363.442 81.5373 361.407 80.276 359.859 78.728C358.368 77.2373 357.25 75.7467 356.505 74.256C355.759 72.7653 355.272 71.504 355.043 70.472C354.813 69.4973 354.699 69.01 354.699 69.01H362.869C362.869 69.01 363.012 69.4113 363.299 70.214C363.585 71.0167 364.13 71.934 364.933 72.966C365.793 73.998 367.054 74.9153 368.717 75.718C370.379 76.5207 372.615 76.922 375.425 76.922C378.75 76.922 381.359 76.2627 383.251 74.944C385.143 73.6827 386.49 72.02 387.293 69.956C388.153 67.892 388.583 65.7133 388.583 63.42V58.174H388.153C387.579 59.1487 386.662 60.2667 385.401 61.528C384.197 62.732 382.591 63.7927 380.585 64.71C378.578 65.57 376.113 66 373.189 66C369.749 66 366.739 65.3407 364.159 64.022C361.579 62.7033 359.429 60.926 357.709 58.69C356.046 56.454 354.785 53.96 353.925 51.208C353.065 48.456 352.635 45.6467 352.635 42.78C352.635 39.9133 353.065 37.104 353.925 34.352C354.785 31.6 356.046 29.106 357.709 26.87C359.429 24.634 361.579 22.8567 364.159 21.538C366.739 20.2193 369.749 19.56 373.189 19.56C376.113 19.56 378.578 20.0187 380.585 20.936C382.591 21.796 384.197 22.828 385.401 24.032C386.662 25.236 387.579 26.354 388.153 27.386H388.583V20.42H396.753V63.334C396.753 69.698 394.889 74.7433 391.163 78.47C387.493 82.1967 382.247 84.06 375.425 84.06ZM374.737 59.034C377.775 59.034 380.298 58.26 382.305 56.712C384.369 55.1067 385.888 53.0713 386.863 50.606C387.895 48.1407 388.411 45.532 388.411 42.78C388.411 40.028 387.895 37.4193 386.863 34.954C385.888 32.4313 384.369 30.396 382.305 28.848C380.298 27.3 377.775 26.526 374.737 26.526C371.698 26.526 369.147 27.3 367.083 28.848C365.019 30.396 363.471 32.4313 362.439 34.954C361.464 37.4193 360.977 40.028 360.977 42.78C360.977 45.532 361.464 48.1407 362.439 50.606C363.471 53.0713 365.019 55.1067 367.083 56.712C369.147 58.26 371.698 59.034 374.737 59.034Z" fill="url(#paint0_linear_294_161)"/>
</g>
<defs>
<filter id="filter0_d_294_161" x="0.730469" y="0.639893" width="406.021" height="93.4202" filterUnits="userSpaceOnUse" color-interpolation-filters="sRGB">
<feFlood flood-opacity="0" result="BackgroundImageFix"/>
<feColorMatrix in="SourceAlpha" type="matrix" values="0 0 0 0 0 0 0 0 0 0 0 0 0 0 0 0 0 0 127 0" result="hardAlpha"/>
<feOffset dx="6" dy="6"/>
<feGaussianBlur stdDeviation="2"/>
<feComposite in2="hardAlpha" operator="out"/>
<feColorMatrix type="matrix" values="0 0 0 0 0.3 0 0 0 0 0.115 0 0 0 0 0.115 0 0 0 0.6 0"/>
<feBlend mode="normal" in2="BackgroundImageFix" result="effect1_dropShadow_294_161"/>
<feBlend mode="normal" in="SourceGraphic" in2="effect1_dropShadow_294_161" result="shape"/>
</filter>
<linearGradient id="paint0_linear_294_161" x1="-4" y1="34.5" x2="403" y2="34.5" gradientUnits="userSpaceOnUse">
<stop stop-color="#FEF0B3"/>
<stop offset="1" stop-color="#FFE606"/>
</linearGradient>
</defs>
</svg>
