<svg width="1144" height="140" viewBox="0 0 1144 140" fill="none" xmlns="http://www.w3.org/2000/svg">
<path d="M277.412 87V55.608H266.324V51.48H293.204V55.608H282.116V87H277.412ZM313.198 87.48C311.118 87.48 309.31 87.112 307.774 86.376C306.27 85.608 305.022 84.584 304.03 83.304C303.07 82.024 302.35 80.616 301.87 79.08C301.39 77.512 301.15 75.912 301.15 74.28C301.15 72.68 301.374 71.096 301.822 69.528C302.302 67.96 303.022 66.536 303.982 65.256C304.974 63.976 306.206 62.968 307.678 62.232C309.182 61.464 310.958 61.08 313.006 61.08C315.182 61.08 317.102 61.576 318.766 62.568C320.43 63.56 321.742 65.032 322.702 66.984C323.662 68.936 324.142 71.384 324.142 74.328V75.672H305.758C305.854 77.112 306.19 78.44 306.766 79.656C307.374 80.84 308.222 81.8 309.31 82.536C310.398 83.24 311.694 83.592 313.198 83.592C314.51 83.592 315.566 83.384 316.366 82.968C317.198 82.52 317.854 82.008 318.334 81.432C318.814 80.856 319.134 80.36 319.294 79.944C319.486 79.496 319.582 79.272 319.582 79.272H323.854C323.854 79.272 323.774 79.56 323.614 80.136C323.454 80.68 323.166 81.352 322.75 82.152C322.334 82.952 321.726 83.768 320.926 84.6C320.126 85.4 319.102 86.088 317.854 86.664C316.606 87.208 315.054 87.48 313.198 87.48ZM305.806 72.12H319.678C319.614 70.456 319.262 69.112 318.622 68.088C317.982 67.032 317.166 66.248 316.174 65.736C315.182 65.224 314.126 64.968 313.006 64.968C310.99 64.968 309.342 65.624 308.062 66.936C306.782 68.216 306.03 69.944 305.806 72.12ZM338.045 87V50.52H342.605V65.256H342.893C343.117 64.872 343.485 64.344 343.997 63.672C344.541 63 345.309 62.408 346.301 61.896C347.293 61.352 348.541 61.08 350.045 61.08C351.901 61.08 353.485 61.512 354.797 62.376C356.109 63.208 357.101 64.344 357.773 65.784C358.477 67.224 358.829 68.84 358.829 70.632V87H354.269V70.92C354.269 69.224 353.789 67.816 352.829 66.696C351.901 65.576 350.541 65.016 348.749 65.016C347.309 65.016 346.141 65.384 345.245 66.12C344.349 66.824 343.677 67.768 343.229 68.952C342.813 70.104 342.605 71.336 342.605 72.648V87H338.045ZM372.749 87V61.56H377.309V65.256H377.597C377.821 64.872 378.189 64.344 378.701 63.672C379.245 63 380.013 62.408 381.005 61.896C381.997 61.352 383.245 61.08 384.749 61.08C386.605 61.08 388.189 61.512 389.501 62.376C390.813 63.208 391.805 64.344 392.477 65.784C393.181 67.224 393.533 68.84 393.533 70.632V87H388.973V70.92C388.973 69.224 388.493 67.816 387.533 66.696C386.605 65.576 385.245 65.016 383.453 65.016C382.013 65.016 380.845 65.384 379.949 66.12C379.053 66.824 378.381 67.768 377.933 68.952C377.517 70.104 377.309 71.336 377.309 72.648V87H372.749ZM410.441 56.712C409.577 56.712 408.857 56.424 408.281 55.848C407.737 55.272 407.465 54.584 407.465 53.784C407.465 52.952 407.737 52.248 408.281 51.672C408.857 51.096 409.577 50.808 410.441 50.808C411.273 50.808 411.977 51.096 412.553 51.672C413.129 52.248 413.417 52.952 413.417 53.784C413.417 54.584 413.129 55.272 412.553 55.848C411.977 56.424 411.273 56.712 410.441 56.712ZM408.185 87V61.56H412.745V87H408.185ZM439.369 87.48C437.289 87.48 435.465 87.112 433.897 86.376C432.329 85.608 431.017 84.6 429.961 83.352C428.937 82.072 428.153 80.648 427.609 79.08C427.097 77.512 426.841 75.912 426.841 74.28C426.841 72.648 427.097 71.064 427.609 69.528C428.121 67.96 428.889 66.536 429.913 65.256C430.969 63.976 432.281 62.968 433.849 62.232C435.417 61.464 437.257 61.08 439.369 61.08C441.417 61.08 443.113 61.384 444.457 61.992C445.801 62.6 446.873 63.368 447.673 64.296C448.505 65.192 449.113 66.104 449.497 67.032C449.913 67.928 450.185 68.68 450.313 69.288C450.441 69.896 450.505 70.2 450.505 70.2H446.089C446.089 70.2 446.009 69.944 445.849 69.432C445.689 68.888 445.385 68.28 444.937 67.608C444.489 66.936 443.817 66.344 442.921 65.832C442.025 65.288 440.841 65.016 439.369 65.016C437.609 65.016 436.121 65.464 434.905 66.36C433.721 67.224 432.825 68.36 432.217 69.768C431.641 71.176 431.353 72.68 431.353 74.28C431.353 75.88 431.641 77.384 432.217 78.792C432.825 80.2 433.721 81.352 434.905 82.248C436.121 83.112 437.609 83.544 439.369 83.544C440.841 83.544 442.025 83.288 442.921 82.776C443.817 82.232 444.489 81.624 444.937 80.952C445.385 80.28 445.689 79.688 445.849 79.176C446.009 78.632 446.089 78.36 446.089 78.36H450.505C450.505 78.36 450.441 78.664 450.313 79.272C450.185 79.88 449.913 80.648 449.497 81.576C449.113 82.472 448.505 83.384 447.673 84.312C446.873 85.208 445.801 85.96 444.457 86.568C443.113 87.176 441.417 87.48 439.369 87.48ZM466.934 56.712C466.07 56.712 465.35 56.424 464.774 55.848C464.23 55.272 463.958 54.584 463.958 53.784C463.958 52.952 464.23 52.248 464.774 51.672C465.35 51.096 466.07 50.808 466.934 50.808C467.766 50.808 468.47 51.096 469.046 51.672C469.622 52.248 469.91 52.952 469.91 53.784C469.91 54.584 469.622 55.272 469.046 55.848C468.47 56.424 467.766 56.712 466.934 56.712ZM464.678 87V61.56H469.238V87H464.678ZM513.117 87.48C511.197 87.48 509.517 87.112 508.077 86.376C506.637 85.608 505.437 84.6 504.477 83.352C503.517 82.072 502.797 80.648 502.317 79.08C501.837 77.512 501.597 75.912 501.597 74.28C501.597 72.648 501.837 71.048 502.317 69.48C502.797 67.912 503.517 66.504 504.477 65.256C505.437 63.976 506.637 62.968 508.077 62.232C509.517 61.464 511.197 61.08 513.117 61.08C514.717 61.08 516.061 61.336 517.149 61.848C518.237 62.36 519.117 62.968 519.789 63.672C520.461 64.344 520.973 64.984 521.325 65.592H521.613V50.52H526.173V87H521.613V82.968H521.325C520.973 83.576 520.461 84.232 519.789 84.936C519.117 85.64 518.237 86.248 517.149 86.76C516.061 87.24 514.717 87.48 513.117 87.48ZM513.885 83.592C515.581 83.592 516.989 83.144 518.109 82.248C519.261 81.32 520.109 80.152 520.653 78.744C521.229 77.304 521.517 75.816 521.517 74.28C521.517 72.712 521.229 71.224 520.653 69.816C520.109 68.408 519.261 67.256 518.109 66.36C516.989 65.432 515.581 64.968 513.885 64.968C512.189 64.968 510.765 65.432 509.613 66.36C508.461 67.256 507.597 68.408 507.021 69.816C506.477 71.224 506.205 72.712 506.205 74.28C506.205 75.816 506.477 77.304 507.021 78.744C507.597 80.152 508.461 81.32 509.613 82.248C510.765 83.144 512.189 83.592 513.885 83.592ZM552.158 87.48C550.078 87.48 548.27 87.112 546.734 86.376C545.23 85.608 543.982 84.584 542.99 83.304C542.03 82.024 541.31 80.616 540.83 79.08C540.35 77.512 540.11 75.912 540.11 74.28C540.11 72.68 540.334 71.096 540.782 69.528C541.262 67.96 541.982 66.536 542.942 65.256C543.934 63.976 545.166 62.968 546.638 62.232C548.142 61.464 549.918 61.08 551.966 61.08C554.142 61.08 556.062 61.576 557.726 62.568C559.39 63.56 560.702 65.032 561.662 66.984C562.622 68.936 563.102 71.384 563.102 74.328V75.672H544.718C544.814 77.112 545.15 78.44 545.726 79.656C546.334 80.84 547.182 81.8 548.27 82.536C549.358 83.24 550.654 83.592 552.158 83.592C553.47 83.592 554.526 83.384 555.326 82.968C556.158 82.52 556.814 82.008 557.294 81.432C557.774 80.856 558.094 80.36 558.254 79.944C558.446 79.496 558.542 79.272 558.542 79.272H562.814C562.814 79.272 562.734 79.56 562.574 80.136C562.414 80.68 562.126 81.352 561.71 82.152C561.294 82.952 560.686 83.768 559.886 84.6C559.086 85.4 558.062 86.088 556.814 86.664C555.566 87.208 554.014 87.48 552.158 87.48ZM544.766 72.12H558.638C558.574 70.456 558.222 69.112 557.582 68.088C556.942 67.032 556.126 66.248 555.134 65.736C554.142 65.224 553.086 64.968 551.966 64.968C549.95 64.968 548.302 65.624 547.022 66.936C545.742 68.216 544.99 69.944 544.766 72.12ZM594.787 87V61.56H599.347V64.728H599.539C600.083 63.768 600.883 62.92 601.939 62.184C602.995 61.448 604.483 61.08 606.403 61.08C606.947 61.08 607.443 61.112 607.891 61.176C608.339 61.208 608.563 61.224 608.563 61.224V65.592C608.563 65.592 608.307 65.576 607.795 65.544C607.315 65.48 606.803 65.448 606.259 65.448C604.051 65.448 602.339 66.088 601.123 67.368C599.939 68.616 599.347 70.664 599.347 73.512V87H594.787ZM630.43 87.48C628.35 87.48 626.542 87.112 625.006 86.376C623.502 85.608 622.254 84.584 621.262 83.304C620.302 82.024 619.582 80.616 619.102 79.08C618.622 77.512 618.382 75.912 618.382 74.28C618.382 72.68 618.606 71.096 619.054 69.528C619.534 67.96 620.254 66.536 621.214 65.256C622.206 63.976 623.438 62.968 624.91 62.232C626.414 61.464 628.19 61.08 630.238 61.08C632.414 61.08 634.334 61.576 635.998 62.568C637.662 63.56 638.974 65.032 639.934 66.984C640.894 68.936 641.374 71.384 641.374 74.328V75.672H622.99C623.086 77.112 623.422 78.44 623.998 79.656C624.606 80.84 625.454 81.8 626.542 82.536C627.63 83.24 628.926 83.592 630.43 83.592C631.742 83.592 632.798 83.384 633.598 82.968C634.43 82.52 635.086 82.008 635.566 81.432C636.046 80.856 636.366 80.36 636.526 79.944C636.718 79.496 636.814 79.272 636.814 79.272H641.086C641.086 79.272 641.006 79.56 640.846 80.136C640.686 80.68 640.398 81.352 639.982 82.152C639.566 82.952 638.958 83.768 638.158 84.6C637.358 85.4 636.334 86.088 635.086 86.664C633.838 87.208 632.286 87.48 630.43 87.48ZM623.038 72.12H636.91C636.846 70.456 636.494 69.112 635.854 68.088C635.214 67.032 634.398 66.248 633.406 65.736C632.414 65.224 631.358 64.968 630.238 64.968C628.222 64.968 626.574 65.624 625.294 66.936C624.014 68.216 623.262 69.944 623.038 72.12ZM664.108 87.48C662.156 87.48 660.54 87.208 659.26 86.664C658.012 86.12 657.02 85.448 656.284 84.648C655.548 83.816 655.004 83 654.652 82.2C654.3 81.368 654.076 80.68 653.98 80.136C653.884 79.592 653.836 79.32 653.836 79.32H658.444C658.444 79.32 658.492 79.544 658.588 79.992C658.716 80.408 658.956 80.904 659.308 81.48C659.692 82.024 660.268 82.52 661.036 82.968C661.836 83.384 662.892 83.592 664.204 83.592C665.708 83.592 666.876 83.24 667.708 82.536C668.54 81.8 668.956 80.904 668.956 79.848C668.956 78.92 668.62 78.184 667.948 77.64C667.308 77.096 666.38 76.68 665.164 76.392L661.708 75.576C660.428 75.256 659.228 74.824 658.108 74.28C656.988 73.736 656.076 73 655.372 72.072C654.7 71.112 654.364 69.928 654.364 68.52C654.364 66.344 655.18 64.568 656.812 63.192C658.444 61.784 660.572 61.08 663.196 61.08C664.956 61.08 666.412 61.336 667.564 61.848C668.716 62.328 669.628 62.936 670.3 63.672C671.004 64.408 671.516 65.144 671.836 65.88C672.188 66.616 672.412 67.24 672.508 67.752C672.604 68.232 672.652 68.472 672.652 68.472H668.236C668.236 68.472 668.188 68.296 668.092 67.944C667.996 67.56 667.772 67.144 667.42 66.696C667.1 66.216 666.604 65.8 665.932 65.448C665.26 65.064 664.364 64.872 663.244 64.872C661.708 64.872 660.588 65.224 659.884 65.928C659.18 66.632 658.828 67.4 658.828 68.232C658.828 69.032 659.148 69.688 659.788 70.2C660.46 70.68 661.324 71.048 662.38 71.304L665.884 72.12C668.06 72.632 669.852 73.48 671.26 74.664C672.7 75.816 673.42 77.48 673.42 79.656C673.42 81.064 673.052 82.376 672.316 83.592C671.58 84.776 670.524 85.72 669.148 86.424C667.772 87.128 666.092 87.48 664.108 87.48ZM686.851 96.408V61.56H691.411V65.592H691.699C692.083 64.984 692.595 64.328 693.235 63.624C693.907 62.92 694.787 62.328 695.875 61.848C696.963 61.336 698.307 61.08 699.907 61.08C701.827 61.08 703.507 61.464 704.947 62.232C706.387 62.968 707.587 63.976 708.547 65.256C709.507 66.504 710.227 67.912 710.707 69.48C711.187 71.048 711.427 72.648 711.427 74.28C711.427 75.912 711.187 77.512 710.707 79.08C710.227 80.648 709.507 82.072 708.547 83.352C707.587 84.6 706.387 85.608 704.947 86.376C703.507 87.112 701.827 87.48 699.907 87.48C698.307 87.48 696.963 87.224 695.875 86.712C694.787 86.2 693.907 85.592 693.235 84.888C692.595 84.184 692.083 83.544 691.699 82.968H691.411V96.408H686.851ZM691.507 74.28C691.507 75.816 691.779 77.304 692.323 78.744C692.899 80.152 693.747 81.32 694.867 82.248C696.019 83.144 697.443 83.592 699.139 83.592C700.867 83.592 702.291 83.144 703.411 82.248C704.563 81.32 705.411 80.152 705.955 78.744C706.531 77.304 706.819 75.816 706.819 74.28C706.819 72.712 706.531 71.224 705.955 69.816C705.411 68.408 704.563 67.256 703.411 66.36C702.291 65.432 700.867 64.968 699.139 64.968C697.443 64.968 696.019 65.432 694.867 66.36C693.747 67.256 692.899 68.408 692.323 69.816C691.779 71.224 691.507 72.712 691.507 74.28ZM727.859 56.712C726.995 56.712 726.275 56.424 725.699 55.848C725.155 55.272 724.883 54.584 724.883 53.784C724.883 52.952 725.155 52.248 725.699 51.672C726.275 51.096 726.995 50.808 727.859 50.808C728.691 50.808 729.395 51.096 729.971 51.672C730.547 52.248 730.835 52.952 730.835 53.784C730.835 54.584 730.547 55.272 729.971 55.848C729.395 56.424 728.691 56.712 727.859 56.712ZM725.603 87V61.56H730.163V87H725.603ZM744.74 87V61.56H749.3V64.728H749.492C750.036 63.768 750.836 62.92 751.892 62.184C752.948 61.448 754.436 61.08 756.356 61.08C756.9 61.08 757.396 61.112 757.844 61.176C758.292 61.208 758.516 61.224 758.516 61.224V65.592C758.516 65.592 758.26 65.576 757.748 65.544C757.268 65.48 756.756 65.448 756.212 65.448C754.004 65.448 752.292 66.088 751.076 67.368C749.892 68.616 749.3 70.664 749.3 73.512V87H744.74ZM779.855 61.08C781.455 61.08 782.799 61.336 783.887 61.848C784.975 62.36 785.855 62.968 786.527 63.672C787.199 64.344 787.711 64.984 788.063 65.592H788.351V61.56H792.911V87H788.351V82.968H788.063C787.711 83.576 787.199 84.232 786.527 84.936C785.855 85.64 784.975 86.248 783.887 86.76C782.799 87.24 781.455 87.48 779.855 87.48C777.935 87.48 776.255 87.112 774.815 86.376C773.375 85.608 772.175 84.6 771.215 83.352C770.255 82.072 769.535 80.648 769.055 79.08C768.575 77.512 768.335 75.912 768.335 74.28C768.335 72.648 768.575 71.048 769.055 69.48C769.535 67.912 770.255 66.504 771.215 65.256C772.175 63.976 773.375 62.968 774.815 62.232C776.255 61.464 777.935 61.08 779.855 61.08ZM780.623 64.968C778.927 64.968 777.503 65.432 776.351 66.36C775.199 67.256 774.335 68.408 773.759 69.816C773.215 71.224 772.943 72.712 772.943 74.28C772.943 75.816 773.215 77.304 773.759 78.744C774.335 80.152 775.199 81.32 776.351 82.248C777.503 83.144 778.927 83.592 780.623 83.592C782.319 83.592 783.727 83.144 784.847 82.248C785.999 81.32 786.847 80.152 787.391 78.744C787.967 77.304 788.255 75.816 788.255 74.28C788.255 72.712 787.967 71.224 787.391 69.816C786.847 68.408 785.999 67.256 784.847 66.36C783.727 65.432 782.319 64.968 780.623 64.968ZM816.674 87.48C814.05 87.48 812.066 86.808 810.722 85.464C809.41 84.12 808.754 82.232 808.754 79.8V65.304H804.194V61.56H808.754V55.176H813.314V61.56H819.506V65.304H813.314V79.8C813.314 81.08 813.666 82.024 814.37 82.632C815.074 83.208 816.098 83.496 817.442 83.496C818.146 83.496 818.818 83.448 819.458 83.352C820.098 83.256 820.418 83.208 820.418 83.208V87.096C820.418 87.096 820.05 87.16 819.314 87.288C818.578 87.416 817.698 87.48 816.674 87.48ZM836.581 56.712C835.717 56.712 834.997 56.424 834.421 55.848C833.877 55.272 833.605 54.584 833.605 53.784C833.605 52.952 833.877 52.248 834.421 51.672C834.997 51.096 835.717 50.808 836.581 50.808C837.413 50.808 838.117 51.096 838.693 51.672C839.269 52.248 839.557 52.952 839.557 53.784C839.557 54.584 839.269 55.272 838.693 55.848C838.117 56.424 837.413 56.712 836.581 56.712ZM834.325 87V61.56H838.885V87H834.325ZM865.03 87.48C862.95 87.48 861.142 87.112 859.606 86.376C858.102 85.608 856.854 84.584 855.862 83.304C854.902 82.024 854.182 80.616 853.702 79.08C853.222 77.512 852.982 75.912 852.982 74.28C852.982 72.68 853.206 71.096 853.654 69.528C854.134 67.96 854.854 66.536 855.814 65.256C856.806 63.976 858.038 62.968 859.51 62.232C861.014 61.464 862.79 61.08 864.838 61.08C867.014 61.08 868.934 61.576 870.598 62.568C872.262 63.56 873.574 65.032 874.534 66.984C875.494 68.936 875.974 71.384 875.974 74.328V75.672H857.59C857.686 77.112 858.022 78.44 858.598 79.656C859.206 80.84 860.054 81.8 861.142 82.536C862.23 83.24 863.526 83.592 865.03 83.592C866.342 83.592 867.398 83.384 868.198 82.968C869.03 82.52 869.686 82.008 870.166 81.432C870.646 80.856 870.966 80.36 871.126 79.944C871.318 79.496 871.414 79.272 871.414 79.272H875.686C875.686 79.272 875.606 79.56 875.446 80.136C875.286 80.68 874.998 81.352 874.582 82.152C874.166 82.952 873.558 83.768 872.758 84.6C871.958 85.4 870.934 86.088 869.686 86.664C868.438 87.208 866.886 87.48 865.03 87.48ZM857.638 72.12H871.51C871.446 70.456 871.094 69.112 870.454 68.088C869.814 67.032 868.998 66.248 868.006 65.736C867.014 65.224 865.958 64.968 864.838 64.968C862.822 64.968 861.174 65.624 859.894 66.936C858.614 68.216 857.862 69.944 857.638 72.12Z" fill="url(#paint0_linear_407_155)"/>
<path d="M1047.48 82.0083C1021.79 115.417 956.477 140.008 956.477 140.008C956.477 140.008 993.348 104.785 1004.48 75.0078C1010.88 57.8615 1006.48 64.0073 1014.48 35.0078C1019.04 18.4692 1030.33 -0.453712 1047.48 0.00829541C1061.23 0.378768 1062.53 -0.864721 1069.48 11.0084C1082.98 34.0777 1063.77 60.8176 1047.48 82.0083Z" fill="#2CBBAA"/>
<path d="M1031.71 74.8617C1017.52 97.4935 984.58 112.489 984.58 112.489C984.58 112.489 1004.29 88.9791 1011.23 68.3859C1015.23 56.5278 1012.77 60.7025 1018.16 40.5454C1021.24 29.0497 1027.69 16.114 1035.98 17.0542C1042.63 17.8081 1043.32 16.978 1046.07 25.5971C1051.41 42.344 1040.71 60.5066 1031.71 74.8617Z" fill="#29E2CD"/>
<path d="M1023.21 71.3683C1015.22 84.1049 995.855 98.4978 995.855 98.4978C995.855 98.4978 1007.77 79.3132 1011.68 67.7239C1013.93 61.0505 1012.55 63.3999 1015.58 52.0561C1017.31 45.5866 1020.95 38.3068 1025.61 38.8359C1029.35 39.2602 1029.74 38.793 1031.29 43.6436C1034.29 53.0683 1028.27 63.2897 1023.21 71.3683Z" fill="#1FFFE5"/>
<path d="M989.477 80.0082C987.202 94.8588 971.477 114.008 971.477 114.008C971.477 114.008 967.477 84.008 959.477 65.0082C951.477 46.0084 960.294 38.9476 971.477 39.0082C977.243 39.0395 980.304 42.0291 984.477 46.0082C994.19 55.2697 991.509 66.7423 989.477 80.0082Z" fill="#2CBBAA"/>
<path d="M983.296 66.0994C983.62 76.1163 975.431 90.6751 975.431 90.6751C975.431 90.6751 968.992 71.543 961.235 60.128C953.478 48.7129 958.529 42.9572 966.061 41.5613C969.945 40.8415 972.378 42.4063 975.683 44.4763C983.376 49.2943 983.005 57.1513 983.296 66.0994Z" fill="#29E2CD"/>
<path d="M976.071 62.451C976.293 69.2711 970.717 79.1837 970.717 79.1837C970.717 79.1837 966.332 66.1574 961.051 58.3853C955.77 50.6132 959.209 46.6943 964.337 45.7439C966.981 45.2538 968.638 46.3192 970.888 47.7286C976.126 51.009 975.874 56.3586 976.071 62.451Z" fill="#1FFFE5"/>
<path d="M953.478 84.0079C960.445 93.6273 958.478 114.008 958.478 114.008C958.478 114.008 953.48 100.008 940.478 92.0079C927.477 84.0079 927.94 76.4856 934.478 71.0079C941.37 65.234 948.205 76.7266 953.478 84.0079Z" fill="#2CBBAA"/>
<path d="M947.505 79.184C952.381 85.2063 954.855 97.9189 954.855 97.9189C954.855 97.9189 947.55 89.2358 938.478 84.2491C929.407 79.2624 929.709 74.5351 934.245 71.0742C939.026 67.426 943.815 74.6254 947.505 79.184Z" fill="#29E2CD"/>
<path d="M941.807 79.4753C945.339 82.8702 947.889 90.6505 947.889 90.6505C947.889 90.6505 942.625 85.7773 936.543 83.3616C930.46 80.9458 930.279 77.9566 932.852 75.4294C935.565 72.7654 939.134 76.9056 941.807 79.4753Z" fill="#1FFFE5"/>
<path d="M1051.47 99.0083C1030.49 107.564 1004.47 133.008 1004.47 133.008C1004.47 133.008 1008.29 129.422 1039.47 124.008C1058.71 120.668 1051.47 118.008 1084.48 124.008C1093.48 125.645 1103.01 117.041 1104.48 108.008C1105.82 99.7307 1102.46 91.0071 1092.46 91.0078C1075.69 91.009 1067 92.6731 1051.47 99.0083Z" fill="#2CBBAA"/>
<path d="M1049.76 99.8766C1036.8 104.635 1020.32 119.711 1020.32 119.711C1020.32 119.711 1022.74 117.59 1041.83 115.034C1053.61 113.457 1054.45 104.948 1074.36 109.498C1079.78 110.739 1091.23 102.048 1092.36 96.4981C1093.38 91.4128 1087.82 92.7505 1081.75 92.4967C1071.55 92.0711 1059.37 96.3531 1049.76 99.8766Z" fill="#29E2CD"/>
<path d="M1045.23 100.938C1036.8 105.42 1020.86 118 1020.86 118C1020.86 118 1028.39 115.619 1041.22 112.068C1049.14 109.877 1048.92 103.969 1062.98 105.208C1066.81 105.546 1073.83 98.5141 1074.08 94.6075C1074.3 91.0277 1070.62 92.4684 1066.44 92.8678C1059.41 93.5377 1051.47 97.6194 1045.23 100.938Z" fill="#1FFFE5"/>
<path d="M1102.46 49.0087C1069.46 56.0084 1065.45 75.0089 1065.45 75.0089C1065.45 75.0089 1095.46 59.008 1111.46 67.0084C1127.46 75.0089 1154.46 62.0294 1139.48 49.0084C1124.52 36.0085 1110.44 47.3164 1102.46 49.0087Z" fill="#2CBBAA"/>
<path d="M1068.16 70.9991C1068.16 70.9991 1083.38 63.8484 1091.16 60.9991C1098.94 58.1497 1115.52 58.9919 1114.66 56.6583C1113.81 54.3246 1089.44 53.8088 1081.66 56.6581C1073.88 59.5075 1068.16 70.9991 1068.16 70.9991Z" fill="#29E2CD"/>
<path d="M1065.34 74.529C1065.34 74.529 1073.17 68.8298 1077.23 66.323C1081.29 63.8162 1090.49 61.9597 1089.84 60.9009C1089.19 59.8422 1075.72 62.9354 1071.66 65.4422C1067.59 67.949 1065.34 74.529 1065.34 74.529Z" fill="#ABDCFF"/>
<path d="M96.3783 82.0083C122.065 115.417 187.378 140.008 187.378 140.008C187.378 140.008 150.508 104.785 139.379 75.0078C132.971 57.8615 137.379 64.0073 129.378 35.0078C124.816 18.4692 113.528 -0.453712 96.3783 0.00829541C82.6259 0.378768 81.3281 -0.864721 74.3788 11.0084C60.8764 34.0777 80.0854 60.8176 96.3783 82.0083Z" fill="#53B6FD"/>
<path d="M112.148 74.8617C126.339 97.4935 159.276 112.489 159.276 112.489C159.276 112.489 139.57 88.9791 132.624 68.3859C128.625 56.5278 131.082 60.7025 125.693 40.5454C122.619 29.0497 116.163 16.114 107.874 17.0542C101.228 17.8081 100.534 16.978 97.785 25.5971C92.4429 42.344 103.147 60.5066 112.148 74.8617Z" fill="#7BC8FF"/>
<path d="M120.65 71.3683C128.636 84.1049 148 98.4978 148 98.4978C148 98.4978 136.083 79.3132 132.174 67.7239C129.923 61.0505 131.306 63.3999 128.273 52.0561C126.543 45.5866 122.91 38.3068 118.245 38.8359C114.505 39.2602 114.115 38.793 112.567 43.6436C109.561 53.0683 115.585 63.2897 120.65 71.3683Z" fill="#ABDCFF"/>
<path d="M154.379 80.0082C156.653 94.8588 172.379 114.008 172.379 114.008C172.379 114.008 176.379 84.008 184.379 65.0082C192.378 46.0084 183.561 38.9476 172.379 39.0082C166.613 39.0395 163.552 42.0291 159.379 46.0082C149.666 55.2697 152.347 66.7423 154.379 80.0082Z" fill="#53B6FD"/>
<path d="M160.56 66.0994C160.235 76.1163 168.424 90.6751 168.424 90.6751C168.424 90.6751 174.864 71.543 182.621 60.128C190.377 48.7129 185.327 42.9572 177.794 41.5613C173.911 40.8415 171.477 42.4063 168.172 44.4763C160.48 49.2943 160.85 57.1513 160.56 66.0994Z" fill="#7BC8FF"/>
<path d="M167.784 62.451C167.563 69.2711 173.138 79.1837 173.138 79.1837C173.138 79.1837 177.523 66.1574 182.804 58.3853C188.086 50.6132 184.647 46.6943 179.518 45.7439C176.874 45.2538 175.217 46.3192 172.967 47.7286C167.729 51.009 167.982 56.3586 167.784 62.451Z" fill="#ABDCFF"/>
<path d="M190.377 84.0079C183.41 93.6273 185.377 114.008 185.377 114.008C185.377 114.008 190.376 100.008 203.377 92.0079C216.379 84.0079 215.915 76.4856 209.377 71.0079C202.486 65.234 195.651 76.7266 190.377 84.0079Z" fill="#53B6FD"/>
<path d="M196.35 79.184C191.475 85.2063 189 97.9189 189 97.9189C189 97.9189 196.306 89.2358 205.377 84.2491C214.449 79.2624 214.146 74.5351 209.611 71.0742C204.83 67.426 200.041 74.6254 196.35 79.184Z" fill="#7BC8FF"/>
<path d="M202.048 79.4753C198.517 82.8702 195.966 90.6505 195.966 90.6505C195.966 90.6505 201.231 85.7773 207.313 83.3616C213.395 80.9458 213.577 77.9566 211.003 75.4294C208.29 72.7654 204.721 76.9056 202.048 79.4753Z" fill="#ABDCFF"/>
<path d="M92.3866 99.0083C113.363 107.564 139.387 133.008 139.387 133.008C139.387 133.008 135.565 129.422 104.383 124.008C85.1443 120.668 92.3866 118.008 59.3789 124.008C50.3762 125.645 40.8411 117.041 39.3789 108.008C38.039 99.7307 41.3938 91.0071 51.3938 91.0078C68.1681 91.009 76.8546 92.6731 92.3866 99.0083Z" fill="#53B6FD"/>
<path d="M94.0914 99.8766C107.06 104.635 123.533 119.711 123.533 119.711C123.533 119.711 121.118 117.59 102.028 115.034C90.2505 113.457 89.4039 104.948 69.5 109.498C64.0713 110.739 52.6224 102.048 51.5001 96.4981C50.4717 91.4128 56.033 92.7505 62.1101 92.4967C72.3041 92.0711 84.4885 96.3531 94.0914 99.8766Z" fill="#7BC8FF"/>
<path d="M98.6267 100.938C107.06 105.42 123 118 123 118C123 118 115.466 115.619 102.633 112.068C94.7153 109.877 94.9381 103.969 80.8775 105.208C77.0425 105.546 70.0213 98.5141 69.7761 94.6075C69.5514 91.0277 73.2339 92.4684 77.4199 92.8678C84.4415 93.5377 92.3823 97.6194 98.6267 100.938Z" fill="#ABDCFF"/>
<path d="M41.3972 49.0087C74.3913 56.0084 78.4031 75.0089 78.4031 75.0089C78.4031 75.0089 48.3964 59.008 32.3968 67.0084C16.3971 75.0089 -10.6057 62.0294 4.37809 49.0084C19.3377 36.0085 33.4204 47.3164 41.3972 49.0087Z" fill="#53B6FD"/>
<path d="M75.6934 70.9991C75.6934 70.9991 60.4723 63.8484 52.6934 60.9991C44.9146 58.1497 28.3388 58.9919 29.1936 56.6583C30.0484 54.3246 54.4158 53.8088 62.1947 56.6581C69.9735 59.5075 75.6934 70.9991 75.6934 70.9991Z" fill="#7BC8FF"/>
<path d="M78.515 74.529C78.515 74.529 70.6876 68.8298 66.6245 66.323C62.5614 63.8162 53.3634 61.9597 54.0166 60.9009C54.6698 59.8422 68.135 62.9354 72.1981 65.4422C76.2612 67.949 78.515 74.529 78.515 74.529Z" fill="#ABDCFF"/>
<defs>
<linearGradient id="paint0_linear_407_155" x1="250" y1="69.5" x2="893" y2="69.5" gradientUnits="userSpaceOnUse">
<stop stop-color="#53B6FD"/>
<stop offset="1" stop-color="#29E2CD"/>
</linearGradient>
</defs>
</svg>
