<svg width="595" height="81" viewBox="0 0 595 81" fill="none" xmlns="http://www.w3.org/2000/svg">
<g filter="url(#filter0_d_258_303)">
<path d="M0.680001 72V0.959999H25.832C30.888 0.959999 35.08 1.952 38.408 3.936C41.736 5.92 44.232 8.48 45.896 11.616C47.56 14.752 48.392 18.048 48.392 21.504C48.392 24.384 47.816 27.168 46.664 29.856C45.512 32.544 43.784 34.912 41.48 36.96C39.24 38.944 36.392 40.384 32.936 41.28L50.888 72H40.232L23.048 42.144H10.088V72H0.680001ZM25.736 9.216H10.088V34.08H25.736C28.68 34.08 31.112 33.472 33.032 32.256C34.952 31.04 36.392 29.504 37.352 27.648C38.312 25.728 38.792 23.744 38.792 21.696C38.792 19.584 38.312 17.6 37.352 15.744C36.392 13.824 34.952 12.256 33.032 11.04C31.112 9.824 28.68 9.216 25.736 9.216ZM82.1998 72.96C78.0398 72.96 74.4238 72.224 71.3518 70.752C68.3438 69.216 65.8478 67.168 63.8638 64.608C61.9438 62.048 60.5038 59.232 59.5438 56.16C58.5838 53.024 58.1038 49.824 58.1038 46.56C58.1038 43.36 58.5518 40.192 59.4478 37.056C60.4078 33.92 61.8478 31.072 63.7678 28.512C65.7518 25.952 68.2158 23.936 71.1598 22.464C74.1678 20.928 77.7198 20.16 81.8158 20.16C86.1678 20.16 90.0078 21.152 93.3358 23.136C96.6638 25.12 99.2878 28.064 101.208 31.968C103.128 35.872 104.088 40.768 104.088 46.656V49.344H67.3198C67.5118 52.224 68.1838 54.88 69.3358 57.312C70.5518 59.68 72.2478 61.6 74.4238 63.072C76.5998 64.48 79.1918 65.184 82.1998 65.184C84.8238 65.184 86.9358 64.768 88.5358 63.936C90.1998 63.04 91.5118 62.016 92.4718 60.864C93.4318 59.712 94.0718 58.72 94.3918 57.888C94.7758 56.992 94.9678 56.544 94.9678 56.544H103.512C103.512 56.544 103.352 57.12 103.032 58.272C102.712 59.36 102.136 60.704 101.304 62.304C100.472 63.904 99.2558 65.536 97.6558 67.2C96.0558 68.8 94.0078 70.176 91.5118 71.328C89.0158 72.416 85.9118 72.96 82.1998 72.96ZM67.4158 42.24H95.1598C95.0318 38.912 94.3278 36.224 93.0478 34.176C91.7678 32.064 90.1358 30.496 88.1518 29.472C86.1678 28.448 84.0558 27.936 81.8158 27.936C77.7838 27.936 74.4878 29.248 71.9278 31.872C69.3678 34.432 67.8638 37.888 67.4158 42.24ZM140.16 72.96C136 72.96 132.352 72.224 129.216 70.752C126.08 69.216 123.456 67.2 121.344 64.704C119.296 62.144 117.728 59.296 116.64 56.16C115.616 53.024 115.104 49.824 115.104 46.56C115.104 43.296 115.616 40.128 116.64 37.056C117.664 33.92 119.2 31.072 121.248 28.512C123.36 25.952 125.984 23.936 129.12 22.464C132.256 20.928 135.936 20.16 140.16 20.16C144.256 20.16 147.648 20.768 150.336 21.984C153.024 23.2 155.168 24.736 156.768 26.592C158.432 28.384 159.648 30.208 160.416 32.064C161.248 33.856 161.792 35.36 162.048 36.576C162.304 37.792 162.432 38.4 162.432 38.4H153.6C153.6 38.4 153.44 37.888 153.12 36.864C152.8 35.776 152.192 34.56 151.296 33.216C150.4 31.872 149.056 30.688 147.264 29.664C145.472 28.576 143.104 28.032 140.16 28.032C136.64 28.032 133.664 28.928 131.232 30.72C128.864 32.448 127.072 34.72 125.856 37.536C124.704 40.352 124.128 43.36 124.128 46.56C124.128 49.76 124.704 52.768 125.856 55.584C127.072 58.4 128.864 60.704 131.232 62.496C133.664 64.224 136.64 65.088 140.16 65.088C143.104 65.088 145.472 64.576 147.264 63.552C149.056 62.464 150.4 61.248 151.296 59.904C152.192 58.56 152.8 57.376 153.12 56.352C153.44 55.264 153.6 54.72 153.6 54.72H162.432C162.432 54.72 162.304 55.328 162.048 56.544C161.792 57.76 161.248 59.296 160.416 61.152C159.648 62.944 158.432 64.768 156.768 66.624C155.168 68.416 153.024 69.92 150.336 71.136C147.648 72.352 144.256 72.96 140.16 72.96ZM199.035 72.96C193.595 72.96 189.019 71.712 185.307 69.216C181.595 66.656 178.779 63.36 176.859 59.328C174.939 55.296 173.979 51.04 173.979 46.56C173.979 42.016 174.939 37.76 176.859 33.792C178.779 29.76 181.595 26.496 185.307 24C189.019 21.44 193.595 20.16 199.035 20.16C204.475 20.16 209.051 21.44 212.763 24C216.475 26.496 219.291 29.76 221.211 33.792C223.131 37.76 224.091 42.016 224.091 46.56C224.091 51.04 223.131 55.296 221.211 59.328C219.291 63.36 216.475 66.656 212.763 69.216C209.051 71.712 204.475 72.96 199.035 72.96ZM199.035 64.992C202.491 64.992 205.371 64.128 207.675 62.4C210.043 60.608 211.803 58.304 212.955 55.488C214.171 52.672 214.779 49.696 214.779 46.56C214.779 43.36 214.171 40.384 212.955 37.632C211.803 34.816 210.043 32.544 207.675 30.816C205.371 29.024 202.491 28.128 199.035 28.128C195.643 28.128 192.763 29.024 190.395 30.816C188.027 32.544 186.235 34.816 185.019 37.632C183.867 40.384 183.291 43.36 183.291 46.56C183.291 49.696 183.867 52.672 185.019 55.488C186.235 58.304 188.027 60.608 190.395 62.4C192.763 64.128 195.643 64.992 199.035 64.992ZM236.533 72V21.12H245.653V28.512H246.229C246.677 27.744 247.413 26.688 248.437 25.344C249.525 24 251.061 22.816 253.045 21.792C255.029 20.704 257.525 20.16 260.533 20.16C264.245 20.16 267.413 21.024 270.037 22.752C272.661 24.416 274.645 26.688 275.989 29.568C277.397 32.448 278.101 35.68 278.101 39.264V72H268.981V39.84C268.981 36.448 268.021 33.632 266.101 31.392C264.245 29.152 261.525 28.032 257.941 28.032C255.061 28.032 252.725 28.768 250.933 30.24C249.141 31.648 247.797 33.536 246.901 35.904C246.069 38.208 245.653 40.672 245.653 43.296V72H236.533ZM314.7 72.96C310.54 72.96 306.924 72.224 303.852 70.752C300.844 69.216 298.348 67.168 296.364 64.608C294.444 62.048 293.004 59.232 292.044 56.16C291.084 53.024 290.604 49.824 290.604 46.56C290.604 43.36 291.052 40.192 291.948 37.056C292.908 33.92 294.348 31.072 296.268 28.512C298.252 25.952 300.716 23.936 303.66 22.464C306.668 20.928 310.22 20.16 314.316 20.16C318.668 20.16 322.508 21.152 325.836 23.136C329.164 25.12 331.788 28.064 333.708 31.968C335.628 35.872 336.588 40.768 336.588 46.656V49.344H299.82C300.012 52.224 300.684 54.88 301.836 57.312C303.052 59.68 304.748 61.6 306.924 63.072C309.1 64.48 311.692 65.184 314.7 65.184C317.324 65.184 319.436 64.768 321.036 63.936C322.7 63.04 324.012 62.016 324.972 60.864C325.932 59.712 326.572 58.72 326.892 57.888C327.276 56.992 327.468 56.544 327.468 56.544H336.012C336.012 56.544 335.852 57.12 335.532 58.272C335.212 59.36 334.636 60.704 333.804 62.304C332.972 63.904 331.756 65.536 330.156 67.2C328.556 68.8 326.508 70.176 324.012 71.328C321.516 72.416 318.412 72.96 314.7 72.96ZM299.916 42.24H327.66C327.532 38.912 326.828 36.224 325.548 34.176C324.268 32.064 322.636 30.496 320.652 29.472C318.668 28.448 316.556 27.936 314.316 27.936C310.284 27.936 306.988 29.248 304.428 31.872C301.868 34.432 300.364 37.888 299.916 42.24ZM372.66 72.96C368.5 72.96 364.852 72.224 361.716 70.752C358.58 69.216 355.956 67.2 353.844 64.704C351.796 62.144 350.228 59.296 349.14 56.16C348.116 53.024 347.604 49.824 347.604 46.56C347.604 43.296 348.116 40.128 349.14 37.056C350.164 33.92 351.7 31.072 353.748 28.512C355.86 25.952 358.484 23.936 361.62 22.464C364.756 20.928 368.436 20.16 372.66 20.16C376.756 20.16 380.148 20.768 382.836 21.984C385.524 23.2 387.668 24.736 389.268 26.592C390.932 28.384 392.148 30.208 392.916 32.064C393.748 33.856 394.292 35.36 394.548 36.576C394.804 37.792 394.932 38.4 394.932 38.4H386.1C386.1 38.4 385.94 37.888 385.62 36.864C385.3 35.776 384.692 34.56 383.796 33.216C382.9 31.872 381.556 30.688 379.764 29.664C377.972 28.576 375.604 28.032 372.66 28.032C369.14 28.032 366.164 28.928 363.732 30.72C361.364 32.448 359.572 34.72 358.356 37.536C357.204 40.352 356.628 43.36 356.628 46.56C356.628 49.76 357.204 52.768 358.356 55.584C359.572 58.4 361.364 60.704 363.732 62.496C366.164 64.224 369.14 65.088 372.66 65.088C375.604 65.088 377.972 64.576 379.764 63.552C381.556 62.464 382.9 61.248 383.796 59.904C384.692 58.56 385.3 57.376 385.62 56.352C385.94 55.264 386.1 54.72 386.1 54.72H394.932C394.932 54.72 394.804 55.328 394.548 56.544C394.292 57.76 393.748 59.296 392.916 61.152C392.148 62.944 390.932 64.768 389.268 66.624C387.668 68.416 385.524 69.92 382.836 71.136C380.148 72.352 376.756 72.96 372.66 72.96ZM429.039 72.96C423.791 72.96 419.823 71.616 417.135 68.928C414.511 66.24 413.199 62.464 413.199 57.6V28.608H404.079V21.12H413.199V8.352H422.319V21.12H434.703V28.608H422.319V57.6C422.319 60.16 423.023 62.048 424.431 63.264C425.839 64.416 427.887 64.992 430.575 64.992C431.983 64.992 433.327 64.896 434.607 64.704C435.887 64.512 436.527 64.416 436.527 64.416V72.192C436.527 72.192 435.791 72.32 434.319 72.576C432.847 72.832 431.087 72.96 429.039 72.96ZM468.706 20.16C471.906 20.16 474.594 20.672 476.77 21.696C478.946 22.72 480.706 23.936 482.05 25.344C483.394 26.688 484.418 27.968 485.122 29.184H485.698V21.12H494.818V72H485.698V63.936H485.122C484.418 65.152 483.394 66.464 482.05 67.872C480.706 69.28 478.946 70.496 476.77 71.52C474.594 72.48 471.906 72.96 468.706 72.96C464.866 72.96 461.506 72.224 458.626 70.752C455.746 69.216 453.346 67.2 451.426 64.704C449.506 62.144 448.066 59.296 447.106 56.16C446.146 53.024 445.666 49.824 445.666 46.56C445.666 43.296 446.146 40.096 447.106 36.96C448.066 33.824 449.506 31.008 451.426 28.512C453.346 25.952 455.746 23.936 458.626 22.464C461.506 20.928 464.866 20.16 468.706 20.16ZM470.242 27.936C466.85 27.936 464.002 28.864 461.698 30.72C459.394 32.512 457.666 34.816 456.514 37.632C455.426 40.448 454.882 43.424 454.882 46.56C454.882 49.632 455.426 52.608 456.514 55.488C457.666 58.304 459.394 60.64 461.698 62.496C464.002 64.288 466.85 65.184 470.242 65.184C473.634 65.184 476.45 64.288 478.69 62.496C480.994 60.64 482.69 58.304 483.778 55.488C484.93 52.608 485.506 49.632 485.506 46.56C485.506 43.424 484.93 40.448 483.778 37.632C482.69 34.816 480.994 32.512 478.69 30.72C476.45 28.864 473.634 27.936 470.242 27.936ZM508.22 72V21.12H517.34V27.456H517.724C518.812 25.536 520.412 23.84 522.524 22.368C524.636 20.896 527.612 20.16 531.452 20.16C532.54 20.16 533.532 20.224 534.428 20.352C535.324 20.416 535.772 20.448 535.772 20.448V29.184C535.772 29.184 535.26 29.152 534.236 29.088C533.276 28.96 532.252 28.896 531.164 28.896C526.748 28.896 523.324 30.176 520.892 32.736C518.524 35.232 517.34 39.328 517.34 45.024V72H508.22ZM565.106 72.96C560.946 72.96 557.33 72.224 554.258 70.752C551.25 69.216 548.754 67.168 546.77 64.608C544.85 62.048 543.41 59.232 542.45 56.16C541.49 53.024 541.01 49.824 541.01 46.56C541.01 43.36 541.458 40.192 542.354 37.056C543.314 33.92 544.754 31.072 546.674 28.512C548.658 25.952 551.122 23.936 554.066 22.464C557.074 20.928 560.626 20.16 564.722 20.16C569.074 20.16 572.914 21.152 576.242 23.136C579.57 25.12 582.194 28.064 584.114 31.968C586.034 35.872 586.994 40.768 586.994 46.656V49.344H550.226C550.418 52.224 551.09 54.88 552.242 57.312C553.458 59.68 555.154 61.6 557.33 63.072C559.506 64.48 562.098 65.184 565.106 65.184C567.73 65.184 569.842 64.768 571.442 63.936C573.106 63.04 574.418 62.016 575.378 60.864C576.338 59.712 576.978 58.72 577.298 57.888C577.682 56.992 577.874 56.544 577.874 56.544H586.418C586.418 56.544 586.258 57.12 585.938 58.272C585.618 59.36 585.042 60.704 584.21 62.304C583.378 63.904 582.162 65.536 580.562 67.2C578.962 68.8 576.914 70.176 574.418 71.328C571.922 72.416 568.818 72.96 565.106 72.96ZM550.322 42.24H578.066C577.938 38.912 577.234 36.224 575.954 34.176C574.674 32.064 573.042 30.496 571.058 29.472C569.074 28.448 566.962 27.936 564.722 27.936C560.69 27.936 557.394 29.248 554.834 31.872C552.274 34.432 550.77 37.888 550.322 42.24Z" fill="white"/>
</g>
<defs>
<filter id="filter0_d_258_303" x="0.679688" y="0.959961" width="594.312" height="80" filterUnits="userSpaceOnUse" color-interpolation-filters="sRGB">
<feFlood flood-opacity="0" result="BackgroundImageFix"/>
<feColorMatrix in="SourceAlpha" type="matrix" values="0 0 0 0 0 0 0 0 0 0 0 0 0 0 0 0 0 0 127 0" result="hardAlpha"/>
<feOffset dx="4" dy="4"/>
<feGaussianBlur stdDeviation="2"/>
<feComposite in2="hardAlpha" operator="out"/>
<feColorMatrix type="matrix" values="0 0 0 0 0.054902 0 0 0 0 0.223529 0 0 0 0 0.137255 0 0 0 1 0"/>
<feBlend mode="normal" in2="BackgroundImageFix" result="effect1_dropShadow_258_303"/>
<feBlend mode="normal" in="SourceGraphic" in2="effect1_dropShadow_258_303" result="shape"/>
</filter>
</defs>
</svg>
